<?xml version="1.0" encoding="utf-8"?>
<!-- Generator: Adobe Illustrator 16.0.0, SVG Export Plug-In . SVG Version: 6.00 Build 0)  -->
<!DOCTYPE svg PUBLIC "-//W3C//DTD SVG 1.1//EN" "http://www.w3.org/Graphics/SVG/1.1/DTD/svg11.dtd">
<svg version="1.1" id="Layer_1" xmlns="http://www.w3.org/2000/svg" xmlns:xlink="http://www.w3.org/1999/xlink" x="0px" y="0px"
	 width="30px" height="30px" viewBox="0 0 30 30" enable-background="new 0 0 30 30" xml:space="preserve">
<g>
	<path d="M18.573,22.597c-0.872,0.379-1.817,0.265-2.534-0.227c-0.113-0.037-0.188-0.114-0.264-0.189
		c-0.114-0.074-2.61-2.307-4.236-5.938c-1.627-3.63-1.627-6.998-1.627-7.111V8.943c0.075-0.909,0.604-1.777,1.513-2.195
		c1.287-0.567,2.837,0,3.405,1.286c0.566,1.287,0,2.837-1.287,3.405c-0.037,0.037-0.074,0.037-0.152,0.037
		c0.189,0.983,0.53,2.195,1.06,3.442c0.567,1.249,1.249,2.27,1.854,3.063c0.038-0.036,0.074-0.036,0.114-0.074
		c1.286-0.567,2.837,0,3.403,1.286C20.464,20.479,19.896,22.029,18.573,22.597"/>
	<path d="M15,0C6.716,0,0,6.716,0,15s6.716,15,15,15s15-6.716,15-15S23.284,0,15,0 M15,1c7.72,0,14,6.28,14,14c0,7.72-6.28,14-14,14
		C7.28,29,1,22.72,1,15C1,7.28,7.28,1,15,1"/>
</g>
</svg>
