<?xml version="1.0" encoding="utf-8"?>
<!-- Generator: Adobe Illustrator 16.0.0, SVG Export Plug-In . SVG Version: 6.00 Build 0)  -->
<!DOCTYPE svg PUBLIC "-//W3C//DTD SVG 1.1//EN" "http://www.w3.org/Graphics/SVG/1.1/DTD/svg11.dtd">
<svg version="1.1" id="Layer_1" xmlns="http://www.w3.org/2000/svg" xmlns:xlink="http://www.w3.org/1999/xlink" x="0px" y="0px"
	 width="209px" height="162px" viewBox="0 0 209 162" enable-background="new 0 0 209 162" xml:space="preserve">
<g>
	<path d="M104.052,51.012c-2.153,0-3.891-1.422-5.573-2.797c-1.026-0.839-1.997-1.633-2.987-2.043
		c-1.054-0.437-2.344-0.575-3.71-0.721c-2.122-0.225-4.315-0.461-5.765-1.91c-1.451-1.451-1.686-3.644-1.912-5.765
		c-0.145-1.367-0.282-2.658-0.719-3.711c-0.412-0.99-1.204-1.959-2.044-2.987c-1.374-1.682-2.796-3.422-2.796-5.573
		c0-2.152,1.422-3.89,2.797-5.572c0.84-1.026,1.631-1.998,2.043-2.989c0.437-1.051,0.574-2.342,0.719-3.709
		c0.226-2.123,0.461-4.314,1.912-5.766c1.45-1.448,3.645-1.683,5.765-1.909c1.367-0.146,2.656-0.284,3.71-0.722
		c0.99-0.409,1.961-1.202,2.987-2.042C100.161,1.419,101.899,0,104.052,0c2.151,0,3.891,1.42,5.571,2.796
		c1.028,0.84,1.999,1.633,2.988,2.042c1.055,0.438,2.345,0.576,3.712,0.722c2.118,0.226,4.313,0.461,5.765,1.909
		c1.449,1.452,1.683,3.643,1.91,5.766c0.146,1.367,0.283,2.658,0.72,3.709c0.411,0.991,1.204,1.963,2.044,2.989
		c1.375,1.682,2.797,3.42,2.797,5.572c0,2.151-1.422,3.891-2.797,5.573c-0.84,1.028-1.633,1.998-2.044,2.987
		c-0.437,1.055-0.574,2.345-0.72,3.712c-0.228,2.12-0.461,4.313-1.91,5.764c-1.451,1.449-3.646,1.685-5.766,1.91
		c-1.366,0.148-2.658,0.284-3.711,0.721c-0.989,0.41-1.961,1.204-2.988,2.043C107.942,49.59,106.203,51.012,104.052,51.012
		 M104.052,1.386c-1.658,0-3.133,1.205-4.695,2.482c-1.06,0.867-2.156,1.763-3.334,2.251c-1.239,0.513-2.69,0.667-4.095,0.819
		C89.96,7.147,88.1,7.346,86.996,8.45s-1.303,2.962-1.511,4.933c-0.15,1.403-0.305,2.856-0.818,4.094
		c-0.49,1.178-1.386,2.275-2.252,3.333c-1.276,1.563-2.483,3.037-2.483,4.695c0,1.657,1.207,3.133,2.483,4.696
		c0.866,1.059,1.762,2.155,2.252,3.335c0.513,1.236,0.668,2.688,0.818,4.091c0.208,1.97,0.407,3.829,1.511,4.933
		c1.104,1.106,2.963,1.303,4.931,1.513c1.405,0.15,2.857,0.305,4.096,0.819c1.178,0.488,2.274,1.384,3.334,2.25
		c1.562,1.279,3.037,2.483,4.695,2.483c1.657,0,3.131-1.204,4.695-2.483c1.058-0.866,2.155-1.762,3.333-2.25
		c1.237-0.514,2.691-0.668,4.096-0.819c1.968-0.21,3.827-0.407,4.932-1.513c1.104-1.104,1.304-2.962,1.512-4.932
		c0.15-1.403,0.306-2.855,0.819-4.092c0.486-1.18,1.382-2.276,2.25-3.335c1.276-1.563,2.483-3.039,2.483-4.696
		c0-1.658-1.207-3.132-2.483-4.695c-0.868-1.058-1.764-2.155-2.25-3.333c-0.514-1.238-0.669-2.691-0.819-4.094
		c-0.208-1.971-0.408-3.829-1.512-4.933c-1.104-1.104-2.964-1.302-4.932-1.512c-1.404-0.152-2.858-0.306-4.096-0.819
		c-1.178-0.488-2.275-1.384-3.333-2.251C107.184,2.591,105.709,1.386,104.052,1.386"/>
	<path d="M104.052,47.168c-1.858,0-3.34-1.215-4.777-2.387c-0.861-0.705-1.676-1.371-2.5-1.713c-0.874-0.363-1.957-0.478-3.105-0.6
		c-1.81-0.194-3.683-0.393-4.937-1.646c-1.251-1.253-1.45-3.125-1.644-4.936c-0.123-1.146-0.238-2.23-0.603-3.107
		c-0.339-0.822-1.006-1.636-1.71-2.497c-1.173-1.437-2.387-2.92-2.387-4.777s1.214-3.342,2.387-4.777
		c0.706-0.862,1.371-1.676,1.71-2.498c0.365-0.877,0.48-1.959,0.603-3.107c0.194-1.811,0.393-3.684,1.644-4.935
		c1.254-1.255,3.127-1.453,4.936-1.647c1.148-0.123,2.232-0.238,3.106-0.602c0.824-0.34,1.639-1.005,2.501-1.709
		c1.436-1.175,2.919-2.388,4.776-2.388c1.857,0,3.343,1.213,4.778,2.388c0.86,0.704,1.674,1.369,2.496,1.71
		c0.876,0.363,1.96,0.478,3.106,0.601c1.813,0.194,3.686,0.392,4.938,1.647c1.251,1.251,1.449,3.124,1.644,4.935
		c0.122,1.148,0.238,2.23,0.604,3.107c0.34,0.821,1.005,1.636,1.709,2.497c1.174,1.436,2.388,2.921,2.388,4.778
		s-1.214,3.341-2.388,4.777c-0.704,0.861-1.369,1.675-1.709,2.497c-0.365,0.877-0.481,1.961-0.604,3.107
		c-0.194,1.811-0.393,3.683-1.644,4.936c-1.253,1.253-3.125,1.452-4.938,1.646c-1.146,0.122-2.23,0.237-3.106,0.6
		c-0.822,0.342-1.636,1.008-2.497,1.713C107.393,45.954,105.909,47.168,104.052,47.168 M104.052,5.229
		c-1.363,0-2.594,1.008-3.899,2.074c-0.902,0.738-1.835,1.499-2.846,1.919c-1.06,0.439-2.295,0.571-3.49,0.698
		c-1.644,0.176-3.197,0.341-4.104,1.249c-0.906,0.906-1.071,2.46-1.248,4.102c-0.126,1.196-0.258,2.429-0.697,3.491
		c-0.42,1.01-1.182,1.942-1.919,2.843c-1.067,1.305-2.073,2.539-2.073,3.901c0,1.362,1.006,2.594,2.073,3.899
		c0.737,0.902,1.499,1.834,1.919,2.843c0.439,1.063,0.571,2.298,0.697,3.492c0.177,1.643,0.342,3.196,1.248,4.103
		c0.907,0.908,2.461,1.072,4.105,1.248c1.194,0.128,2.429,0.259,3.489,0.699c1.011,0.418,1.944,1.181,2.846,1.92
		c1.305,1.065,2.536,2.071,3.899,2.071c1.364,0,2.595-1.006,3.898-2.073c0.901-0.737,1.835-1.5,2.847-1.918
		c1.06-0.44,2.295-0.571,3.489-0.699c1.643-0.176,3.196-0.34,4.103-1.247c0.907-0.907,1.073-2.46,1.247-4.104
		c0.128-1.194,0.26-2.429,0.7-3.492c0.42-1.008,1.181-1.941,1.918-2.843c1.068-1.305,2.075-2.537,2.075-3.899
		c0-1.363-1.009-2.596-2.075-3.901c-0.737-0.901-1.498-1.833-1.918-2.843c-0.44-1.062-0.572-2.295-0.698-3.491
		c-0.176-1.642-0.342-3.196-1.249-4.102c-0.906-0.908-2.46-1.073-4.103-1.249c-1.194-0.127-2.43-0.259-3.489-0.698
		c-1.012-0.42-1.945-1.181-2.845-1.919C106.646,6.236,105.416,5.229,104.052,5.229"/>
	<path d="M104.052,43.324c-1.562,0-2.846-1.051-3.981-1.979c-0.697-0.569-1.354-1.107-2.01-1.379
		c-0.697-0.288-1.575-0.383-2.501-0.481c-1.5-0.16-3.054-0.327-4.108-1.381c-1.053-1.055-1.22-2.606-1.379-4.108
		c-0.101-0.927-0.194-1.803-0.484-2.501c-0.269-0.654-0.807-1.313-1.378-2.01c-0.927-1.133-1.979-2.419-1.979-3.98
		c0-1.562,1.052-2.848,1.979-3.981c0.571-0.698,1.109-1.354,1.378-2.01c0.29-0.697,0.383-1.575,0.484-2.5
		c0.159-1.502,0.326-3.054,1.379-4.109c1.054-1.054,2.608-1.22,4.107-1.381c0.927-0.098,1.804-0.191,2.502-0.482
		c0.656-0.271,1.314-0.809,2.01-1.379c1.135-0.926,2.419-1.978,3.981-1.978c1.562,0,2.847,1.052,3.981,1.978
		c0.695,0.57,1.354,1.108,2.01,1.379c0.697,0.291,1.575,0.384,2.499,0.482c1.504,0.161,3.055,0.327,4.108,1.381
		c1.057,1.055,1.222,2.607,1.382,4.107c0.099,0.927,0.192,1.805,0.482,2.502c0.271,0.656,0.811,1.312,1.379,2.01
		c0.927,1.132,1.978,2.419,1.978,3.981c0,1.561-1.051,2.847-1.978,3.98c-0.568,0.697-1.107,1.356-1.379,2.01
		c-0.29,0.698-0.384,1.575-0.482,2.502c-0.16,1.501-0.325,3.054-1.382,4.108c-1.054,1.055-2.604,1.22-4.108,1.38
		c-0.924,0.099-1.802,0.193-2.499,0.481c-0.655,0.274-1.314,0.81-2.01,1.38C106.898,42.273,105.614,43.324,104.052,43.324
		 M104.052,9.071c-1.068,0-2.056,0.81-3.105,1.666c-0.745,0.608-1.512,1.236-2.355,1.586c-0.883,0.367-1.9,0.475-2.886,0.579
		c-1.321,0.141-2.566,0.274-3.273,0.982c-0.707,0.71-0.843,1.955-0.982,3.277c-0.107,0.984-0.215,2.001-0.581,2.885
		c-0.35,0.843-0.978,1.611-1.585,2.356c-0.858,1.046-1.665,2.036-1.665,3.103c0,1.069,0.807,2.057,1.665,3.104
		c0.607,0.744,1.235,1.513,1.585,2.354c0.366,0.884,0.474,1.902,0.581,2.885c0.139,1.322,0.275,2.569,0.982,3.276
		c0.707,0.708,1.952,0.842,3.274,0.983c0.985,0.104,2.002,0.214,2.885,0.58c0.843,0.349,1.61,0.979,2.355,1.585
		c1.049,0.856,2.037,1.665,3.105,1.665c1.068,0,2.057-0.809,3.104-1.665c0.743-0.606,1.512-1.236,2.354-1.585
		c0.884-0.366,1.902-0.474,2.886-0.58c1.32-0.141,2.568-0.275,3.275-0.981c0.708-0.708,0.841-1.956,0.98-3.276
		c0.106-0.984,0.214-2.003,0.581-2.887c0.35-0.841,0.979-1.61,1.585-2.354c0.855-1.047,1.668-2.035,1.668-3.104
		c0-1.067-0.812-2.057-1.669-3.105c-0.605-0.743-1.234-1.511-1.584-2.354c-0.367-0.884-0.475-1.901-0.581-2.887
		c-0.14-1.32-0.272-2.565-0.98-3.275c-0.707-0.708-1.955-0.841-3.275-0.982c-0.983-0.104-2.002-0.212-2.886-0.579
		c-0.843-0.35-1.611-0.978-2.354-1.585C106.108,9.881,105.12,9.071,104.052,9.071"/>
	<path d="M104.052,39.48c-1.267,0-2.287-0.834-3.186-1.569c-0.532-0.434-1.033-0.843-1.52-1.045
		c-0.522-0.217-1.19-0.288-1.898-0.363c-1.19-0.126-2.421-0.26-3.278-1.116c-0.857-0.857-0.988-2.087-1.116-3.28
		c-0.075-0.706-0.147-1.375-0.361-1.898c-0.204-0.485-0.614-0.987-1.047-1.517c-0.735-0.9-1.569-1.92-1.569-3.187
		s0.834-2.286,1.569-3.186c0.433-0.531,0.843-1.033,1.047-1.519c0.214-0.521,0.286-1.19,0.361-1.898
		c0.128-1.191,0.259-2.422,1.116-3.278c0.857-0.857,2.088-0.991,3.278-1.116c0.709-0.076,1.376-0.147,1.898-0.363
		c0.487-0.203,0.988-0.611,1.52-1.045c0.899-0.736,1.919-1.571,3.186-1.571c1.268,0,2.288,0.835,3.187,1.571
		c0.531,0.434,1.033,0.842,1.518,1.045c0.521,0.216,1.188,0.287,1.897,0.363c1.192,0.128,2.424,0.259,3.28,1.116
		c0.855,0.856,0.988,2.087,1.115,3.278c0.074,0.708,0.146,1.377,0.363,1.898c0.203,0.486,0.611,0.988,1.046,1.519
		c0.733,0.9,1.569,1.919,1.569,3.186s-0.836,2.287-1.568,3.186c-0.436,0.531-0.844,1.033-1.047,1.518
		c-0.218,0.523-0.289,1.192-0.363,1.899c-0.127,1.192-0.26,2.422-1.115,3.279c-0.856,0.856-2.088,0.99-3.28,1.116
		c-0.709,0.075-1.373,0.147-1.896,0.363c-0.485,0.202-0.987,0.611-1.519,1.045C106.34,38.646,105.319,39.48,104.052,39.48
		 M104.052,12.915c-0.773,0-1.519,0.611-2.309,1.257c-0.586,0.477-1.191,0.973-1.864,1.252c-0.707,0.294-1.509,0.379-2.283,0.461
		c-0.996,0.107-1.937,0.208-2.446,0.718c-0.511,0.509-0.612,1.451-0.718,2.446c-0.082,0.774-0.168,1.576-0.459,2.283
		c-0.282,0.672-0.774,1.279-1.255,1.863c-0.645,0.791-1.256,1.537-1.256,2.31c0,0.772,0.611,1.52,1.256,2.31
		c0.481,0.584,0.973,1.19,1.255,1.864c0.291,0.706,0.377,1.508,0.459,2.282c0.106,0.995,0.207,1.935,0.718,2.447
		c0.509,0.51,1.45,0.609,2.446,0.716c0.774,0.085,1.575,0.169,2.283,0.462c0.672,0.279,1.278,0.773,1.862,1.252
		c0.791,0.647,1.538,1.255,2.311,1.255s1.521-0.608,2.31-1.255c0.584-0.479,1.19-0.973,1.866-1.252
		c0.706-0.293,1.505-0.377,2.278-0.46c0.996-0.108,1.938-0.208,2.447-0.718c0.512-0.512,0.611-1.451,0.72-2.447
		c0.081-0.774,0.166-1.576,0.46-2.282c0.279-0.674,0.774-1.28,1.253-1.864c0.645-0.79,1.255-1.538,1.255-2.31
		c0-0.773-0.61-1.519-1.255-2.31c-0.479-0.584-0.974-1.191-1.253-1.863c-0.294-0.707-0.379-1.509-0.46-2.283
		c-0.108-0.995-0.208-1.937-0.72-2.446c-0.51-0.51-1.451-0.61-2.447-0.718c-0.773-0.082-1.572-0.167-2.279-0.461
		c-0.675-0.279-1.281-0.775-1.865-1.252C105.572,13.526,104.825,12.915,104.052,12.915"/>
	<path d="M104.052,35.637c-0.971,0-1.725-0.616-2.391-1.161c-0.366-0.297-0.712-0.581-1.029-0.712
		c-0.344-0.144-0.806-0.193-1.294-0.244c-0.84-0.09-1.79-0.192-2.45-0.851c-0.659-0.659-0.761-1.61-0.851-2.451
		c-0.053-0.488-0.1-0.95-0.243-1.293c-0.132-0.317-0.415-0.663-0.713-1.028c-0.545-0.666-1.162-1.421-1.162-2.392
		c0-0.973,0.617-1.726,1.162-2.392c0.298-0.365,0.581-0.71,0.712-1.029c0.144-0.343,0.191-0.804,0.244-1.292
		c0.09-0.841,0.192-1.793,0.851-2.45c0.659-0.66,1.61-0.762,2.45-0.851c0.488-0.053,0.95-0.102,1.294-0.243
		c0.317-0.134,0.663-0.415,1.029-0.714c0.666-0.545,1.42-1.161,2.391-1.161c0.972,0,1.727,0.616,2.391,1.161
		c0.365,0.299,0.711,0.581,1.028,0.714c0.346,0.141,0.806,0.19,1.294,0.243c0.841,0.089,1.793,0.191,2.45,0.851
		c0.661,0.657,0.762,1.61,0.852,2.45c0.053,0.488,0.101,0.949,0.245,1.292c0.13,0.319,0.412,0.664,0.711,1.029
		c0.544,0.666,1.16,1.419,1.16,2.392c0,0.971-0.616,1.726-1.16,2.392c-0.299,0.365-0.581,0.711-0.711,1.028
		c-0.145,0.343-0.192,0.805-0.245,1.293c-0.09,0.842-0.19,1.792-0.852,2.451c-0.657,0.659-1.609,0.761-2.45,0.851
		c-0.487,0.051-0.948,0.1-1.294,0.244c-0.317,0.131-0.663,0.415-1.028,0.712C105.778,35.021,105.023,35.637,104.052,35.637
		 M104.052,16.759c-0.476,0-0.98,0.412-1.514,0.848c-0.428,0.35-0.869,0.709-1.375,0.92c-0.53,0.218-1.114,0.281-1.677,0.342
		c-0.672,0.072-1.305,0.139-1.62,0.451c-0.31,0.314-0.379,0.947-0.451,1.618c-0.059,0.565-0.121,1.148-0.341,1.678
		c-0.211,0.506-0.571,0.949-0.921,1.376c-0.435,0.532-0.846,1.036-0.846,1.513c0,0.478,0.411,0.98,0.846,1.514
		c0.35,0.427,0.711,0.869,0.921,1.375c0.22,0.529,0.282,1.112,0.341,1.677c0.072,0.672,0.141,1.306,0.451,1.618
		c0.315,0.314,0.948,0.381,1.62,0.453c0.563,0.059,1.147,0.123,1.677,0.342c0.505,0.21,0.947,0.572,1.375,0.92
		c0.534,0.436,1.038,0.849,1.514,0.849c0.477,0,0.98-0.413,1.514-0.849c0.428-0.348,0.869-0.71,1.375-0.92
		c0.528-0.219,1.113-0.283,1.678-0.342c0.671-0.072,1.305-0.139,1.616-0.453c0.312-0.312,0.382-0.946,0.453-1.617
		c0.06-0.566,0.123-1.149,0.343-1.678c0.211-0.506,0.57-0.948,0.921-1.376c0.435-0.533,0.848-1.036,0.848-1.513
		s-0.413-0.981-0.848-1.513c-0.351-0.427-0.71-0.87-0.921-1.376c-0.22-0.53-0.283-1.113-0.343-1.678
		c-0.071-0.671-0.141-1.304-0.453-1.618c-0.312-0.311-0.945-0.379-1.616-0.451c-0.564-0.061-1.149-0.124-1.678-0.342
		c-0.506-0.211-0.947-0.57-1.375-0.92C105.032,17.171,104.529,16.759,104.052,16.759"/>
	<path d="M51.881,161.907v-1.988h0.92l1.559,1.988h1.128l-1.777-2.196c0.596-0.157,1.17-0.658,1.17-1.578
		c0-0.953-0.512-1.735-2.257-1.735c-0.45,0-1.297,0.021-1.631,0.021v5.489H51.881z M52.666,157.233c0.972,0,1.276,0.438,1.276,0.909
		c0,0.586-0.565,0.942-1.213,0.942h-0.848v-1.831C52.069,157.243,52.477,157.233,52.666,157.233 M57.622,161.907h3.637v-0.836h-2.75
		v-1.518h2.404v-0.836h-2.404v-1.464h2.666v-0.836h-3.553V161.907z M66.602,160.412c0,0.502-0.512,0.753-1.066,0.753
		c-0.681,0-1.401-0.272-1.777-0.638l-0.512,0.606c0.406,0.532,1.337,0.866,2.236,0.866c1.173,0,2.059-0.606,2.059-1.535
		c0-1.967-3.157-1.496-3.157-2.583c0-0.44,0.419-0.702,1.098-0.702c0.471,0,1.151,0.199,1.548,0.522l0.407-0.657
		c-0.376-0.407-1.265-0.7-1.913-0.7c-1.464,0-2.08,0.679-2.08,1.495C63.445,159.712,66.602,159.272,66.602,160.412 M70.032,161.907
		h0.887v-5.489h-0.887V161.907z M73.869,161.907h0.105c0.531,0,1.148,0.02,1.536,0.02c2.3,0,3.449-1.212,3.449-2.821
		c0-1.518-0.971-2.708-3.388-2.708c-0.469,0-1.211,0.021-1.597,0.021h-0.105V161.907z M75.562,157.233
		c1.662,0,2.457,0.741,2.457,1.872c0,1.213-0.888,1.986-2.479,1.986c-0.125,0-0.438-0.011-0.783-0.021v-3.817
		C75.028,157.243,75.247,157.233,75.562,157.233 M81.302,161.907h3.638v-0.836h-2.751v-1.518h2.405v-0.836h-2.405v-1.464h2.667
		v-0.836h-3.554V161.907z M92.551,161.907v-5.489h-0.835v4.046l-3.556-4.046h-0.711v5.489h0.836v-4.036l3.545,4.036H92.551z
		 M99.503,160.715c-0.407,0.293-0.941,0.45-1.485,0.45c-1.327,0-2.185-0.805-2.185-1.998c0-1.213,0.847-1.987,2.06-1.987
		c0.617,0,1.045,0.146,1.433,0.377l0.407-0.669c-0.418-0.322-1.056-0.543-1.84-0.543c-1.955,0-3,1.296-3,2.822
		c0,1.716,1.212,2.833,3.042,2.833c0.763,0,1.527-0.24,1.913-0.616L99.503,160.715z M102.067,161.907h3.636v-0.836h-2.75v-1.518
		h2.405v-0.836h-2.405v-1.464h2.667v-0.836h-3.552V161.907z M113.146,156.418h-0.887v4.057c0,0.408-0.146,0.681-0.617,0.681
		c-0.199,0-0.408-0.074-0.544-0.168l-0.302,0.679c0.155,0.157,0.543,0.324,0.972,0.324c0.95,0,1.378-0.5,1.378-1.368V156.418z
		 M120.758,156.418h-0.887v3.032c0,1.107-0.524,1.705-1.485,1.705c-1.078,0-1.643-0.701-1.643-1.757v-2.98h-0.888v3.157
		c0,1.601,1.066,2.415,2.53,2.415c1.254,0,2.372-0.689,2.372-2.362V156.418z M124.366,161.907v-1.988h0.919l1.559,1.988h1.129
		l-1.777-2.196c0.596-0.157,1.171-0.658,1.171-1.578c0-0.953-0.513-1.735-2.259-1.735c-0.449,0-1.296,0.021-1.63,0.021v5.489
		H124.366z M125.149,157.233c0.974,0,1.277,0.438,1.277,0.909c0,0.586-0.566,0.942-1.214,0.942h-0.847v-1.831
		C124.554,157.243,124.962,157.233,125.149,157.233 M130.105,161.907h0.889v-4.108l2.05,2.477h0.126l2.029-2.509v4.141h0.886v-5.489
		h-0.845l-2.07,2.625l-2.166-2.625h-0.898V161.907z M138.134,161.907h0.901l0.669-1.464h2.728l0.669,1.464h0.952l-2.572-5.521
		h-0.773L138.134,161.907z M141.073,157.453l0.982,2.154h-1.976L141.073,157.453z M146.103,161.907h3.731v-0.89h-2.844v-4.6h-0.888
		V161.907z M151.193,161.907h0.898l0.669-1.464h2.73l0.669,1.464h0.951l-2.572-5.521h-0.773L151.193,161.907z M154.131,157.453
		l0.984,2.154h-1.978L154.131,157.453z"/>
	<path d="M1.763,69.651h9.61c8.287,0,13.18,4.32,13.18,12.651c0,8.332-4.893,12.652-13.18,12.652h-9.61V69.651z M3.174,70.974
		v22.658h8.199c7.317,0,11.681-3.879,11.681-11.33c0-7.448-4.364-11.328-11.681-11.328H3.174z M11.46,96.629
		c8.905,0,14.856-4.673,14.856-14.327c0-9.653-5.951-14.325-14.856-14.325H0v28.652H11.46z M4.937,91.956V72.649h6.172
		c6.612,0,10.182,3.307,10.182,9.653c0,6.35-3.57,9.654-10.182,9.654H4.937z M45.712,97.29c7.008,0,12.563-3.57,12.563-12.783
		v-16.53h-1.676v16.31c0,8.11-4.364,11.417-10.887,11.417c-6.524,0-10.888-3.307-10.888-11.417v-16.31h-1.676v16.53
		C33.148,93.72,38.703,97.29,45.712,97.29 M53.514,67.977v16.221c0,5.73-2.777,8.552-7.802,8.552s-7.802-2.821-7.802-8.552V67.977
		h-1.677v16.31c0,7.053,3.749,10.05,9.479,10.05s9.477-2.997,9.477-10.05v-16.31H53.514z M86.795,81.421
		c0.969-1.101,2.336-2.733,2.336-5.598c0-4.628-3.349-7.846-8.552-7.846H67.091v28.652h14.106c6.567,0,9.344-4.453,9.344-8.463
		C90.541,84.507,88.558,82.567,86.795,81.421 M80.844,84.022c3.086,0,4.672,2.071,4.672,4.055c0,2.381-1.586,3.968-4.672,3.968
		h-8.816v-8.022H80.844z M72.028,79.614v-7.053h7.934c2.513,0,4.187,1.41,4.187,3.526c0,1.72-1.233,3.527-3.746,3.527H72.028z
		 M68.854,94.954V69.651h11.417c4.099,0,7.097,2.425,7.097,6.349c0,2.379-1.455,4.804-3.571,5.687
		c3.218,0.793,4.982,3.35,4.982,6.436c0,3.967-2.822,6.832-7.935,6.832H68.854z M80.844,93.632c4.143,0,6.436-2.337,6.436-5.51
		c0-3.394-2.47-5.643-6.745-5.643H70.264v11.152H80.844z M80.315,81.156c2.865,0,5.554-1.851,5.554-5.156
		c0-3.131-2.38-5.026-5.598-5.026H70.264v10.182H80.315z M110.599,97.29c7.008,0,12.562-3.57,12.562-12.783v-16.53h-1.675v16.31
		c0,8.11-4.364,11.417-10.888,11.417c-6.524,0-10.889-3.307-10.889-11.417v-16.31h-1.675v16.53
		C98.035,93.72,103.589,97.29,110.599,97.29 M118.4,67.977v16.221c0,5.73-2.776,8.552-7.802,8.552s-7.803-2.821-7.803-8.552V67.977
		h-1.675v16.31c0,7.053,3.747,10.05,9.478,10.05s9.478-2.997,9.478-10.05v-16.31H118.4z M133.741,67.977h-1.809v28.652h21.424
		v-1.675h-19.615V67.977z M135.151,93.632h18.205v-1.676h-16.397V67.977h-1.808V93.632z M166.492,96.629v-23.98h9.874v-1.675
		h-11.682v25.655H166.492z M151.592,72.649h9.876v23.98h1.807V70.974h-11.683V72.649z M151.592,69.651h24.773v-1.674h-24.773V69.651
		z M195.541,97.29c7.009,0,12.562-3.57,12.562-12.783v-16.53h-1.675v16.31c0,8.11-4.363,11.417-10.888,11.417
		c-6.523,0-10.887-3.307-10.887-11.417v-16.31h-1.677v16.53C182.978,93.72,188.533,97.29,195.541,97.29 M203.343,67.977v16.221
		c0,5.73-2.776,8.552-7.802,8.552s-7.802-2.821-7.802-8.552V67.977h-1.674v16.31c0,7.053,3.745,10.05,9.476,10.05
		s9.478-2.997,9.478-10.05v-16.31H203.343z"/>
	<path d="M24.995,126.282l12.255,13.136h2.512l-13.445-14.194l13.664-14.458h-2.38l-12.606,13.445v-13.445H23.23v28.652h1.764
		V126.282z M30.592,125.224l13.665-14.458h-2.379l-13.622,14.458l13.445,14.194h2.469L30.592,125.224z M20.057,139.418h1.763
		v-28.652h-1.763V139.418z M55.365,124.166v-8.816h9.258c2.513,0,4.187,2.292,4.187,4.409c0,1.719-1.234,4.407-3.746,4.407H55.365z
		 M64.975,125.709c2.866,0,5.555-2.732,5.555-6.039c0-3.13-2.381-5.907-5.599-5.907H53.603v11.946H64.975z M73.968,139.418
		l-5.687-11.328c3.395-1.235,5.467-4.717,5.467-8.596c0-4.628-3.086-8.729-9.609-8.729h-13.71v28.652h1.763V112.44h12.739
		c4.099,0,7.097,3.307,7.097,7.229c0,3.438-2.424,7.01-6.127,7.361l6.216,12.387H73.968z M55.365,128.575h7.847l5.422,10.843h1.939
		l-6.214-12.387H53.603v12.387h1.762V128.575z M92.349,120.11l4.144,9.61h-8.199L92.349,120.11z M85.737,131.308h13.269
		l-6.657-15.561L85.737,131.308z M91.248,110.766l-12.519,28.652h1.895l11.682-27.285h0.131l11.77,27.285h1.852l-12.476-28.652
		H91.248z M84.193,139.418l2.161-5.069h12.078l2.16,5.069h1.939l-2.909-6.7h-14.46l-2.953,6.7H84.193z M131.712,115.086
		c0,0-5.245-1.939-10.358-1.939c-4.892,0-8.199,1.852-8.11,5.555c0.088,4.1,4.364,4.715,8.685,5.598
		c4.804,1.014,9.608,2.117,9.608,7.186c0,6.216-6.744,6.744-10.139,6.744c-5.862,0-10.666-2.115-10.666-2.115v1.763
		c0,0,3.922,1.938,10.754,1.938c5.952,0,11.947-1.763,11.947-8.154c0-4.806-2.557-7.053-9.39-8.684
		c-4.452-1.059-8.904-1.278-8.948-4.496c-0.043-1.984,1.763-3.57,6.347-3.658c5.025-0.089,10.271,2.026,10.271,2.026V115.086z
		 M131.712,112.001c0,0-4.495-1.94-10.446-1.809c-8.022,0.178-11.461,3.746-11.373,8.729c0.088,5.069,4.1,6.965,9.345,8.065
		c4.364,0.884,8.949,1.411,8.949,4.586c0,3.086-3.481,3.702-6.833,3.702c-4.628,0-10.622-2.292-10.622-2.292v1.72
		c0,0,5.376,2.204,10.666,2.204c2.866,0,8.64-0.442,8.64-5.422c0-3.924-4.319-4.938-8.464-5.818
		c-4.672-0.972-9.741-1.94-9.829-6.965c-0.088-4.674,3.746-6.789,9.609-6.876c5.334-0.091,10.358,1.894,10.358,1.894V112.001z
		 M152.65,139.418v-23.979h9.875v-1.676h-11.682v25.655H152.65z M137.752,115.438h9.873v23.979h1.808v-25.655h-11.681V115.438z
		 M137.752,112.44h24.772v-1.674h-24.772V112.44z M188.621,115.086c0,0-5.247-1.939-10.359-1.939c-4.893,0-8.199,1.852-8.111,5.555
		c0.088,4.1,4.364,4.715,8.685,5.598c4.805,1.014,9.61,2.117,9.61,7.186c0,6.216-6.746,6.744-10.141,6.744
		c-5.862,0-10.666-2.115-10.666-2.115v1.763c0,0,3.923,1.938,10.756,1.938c5.951,0,11.945-1.763,11.945-8.154
		c0-4.806-2.557-7.053-9.39-8.684c-4.452-1.059-8.903-1.278-8.947-4.496c-0.044-1.984,1.762-3.57,6.348-3.658
		c5.023-0.089,10.271,2.026,10.271,2.026V115.086z M188.621,112.001c0,0-4.496-1.94-10.447-1.809
		c-8.023,0.178-11.46,3.746-11.373,8.729c0.088,5.069,4.099,6.965,9.346,8.065c4.364,0.884,8.948,1.411,8.948,4.586
		c0,3.086-3.483,3.702-6.833,3.702c-4.628,0-10.623-2.292-10.623-2.292v1.72c0,0,5.377,2.204,10.666,2.204
		c2.866,0,8.641-0.442,8.641-5.422c0-3.924-4.319-4.938-8.463-5.818c-4.673-0.972-9.742-1.94-9.831-6.965
		c-0.088-4.674,3.747-6.789,9.61-6.876c5.334-0.091,10.359,1.894,10.359,1.894V112.001z"/>
</g>
</svg>
