<?xml version="1.0" encoding="utf-8"?>
<!-- Generator: Adobe Illustrator 16.0.0, SVG Export Plug-In . SVG Version: 6.00 Build 0)  -->
<!DOCTYPE svg PUBLIC "-//W3C//DTD SVG 1.1//EN" "http://www.w3.org/Graphics/SVG/1.1/DTD/svg11.dtd">
<svg version="1.1" id="Layer_1" xmlns="http://www.w3.org/2000/svg" xmlns:xlink="http://www.w3.org/1999/xlink" x="0px" y="0px"
	 width="11px" height="17px" viewBox="0 0 11 17" enable-background="new 0 0 11 17" xml:space="preserve">
<g>
	<defs>
		<rect id="SVGID_1_" y="0.706" width="10.175" height="16.294"/>
	</defs>
	<clipPath id="SVGID_2_">
		<use xlink:href="#SVGID_1_"  overflow="visible"/>
	</clipPath>
	<path clip-path="url(#SVGID_2_)" fill="#394A58" d="M8.661,16.774c-0.872,0.379-1.817,0.266-2.534-0.227
		c-0.114-0.037-0.189-0.114-0.264-0.189c-0.114-0.074-2.61-2.307-4.236-5.938C0,6.791,0,3.424,0,3.31V3.121
		c0.075-0.909,0.604-1.777,1.513-2.195c1.287-0.567,2.837,0,3.405,1.286c0.566,1.287,0,2.837-1.287,3.405
		C3.594,5.654,3.557,5.654,3.479,5.654c0.189,0.983,0.53,2.195,1.06,3.442c0.567,1.248,1.249,2.27,1.854,3.062
		c0.037-0.035,0.074-0.035,0.114-0.073c1.286-0.568,2.837,0,3.403,1.285C10.552,14.657,9.984,16.208,8.661,16.774"/>
</g>
</svg>
