<?xml version="1.0" encoding="utf-8"?>
<!-- Generator: Adobe Illustrator 16.0.0, SVG Export Plug-In . SVG Version: 6.00 Build 0)  -->
<!DOCTYPE svg PUBLIC "-//W3C//DTD SVG 1.1//EN" "http://www.w3.org/Graphics/SVG/1.1/DTD/svg11.dtd">
<svg version="1.1" id="Layer_1" xmlns="http://www.w3.org/2000/svg" xmlns:xlink="http://www.w3.org/1999/xlink" x="0px" y="0px"
	 width="24px" height="11px" viewBox="0 0 24 11" enable-background="new 0 0 24 11" xml:space="preserve">
<g>
	<path d="M22.88,6.43l-1.839,1.839H10.143C9.224,9.891,7.438,11,5.411,11C2.434,11.001,0,8.567,0,5.565
		C0,2.563,2.434,0.128,5.41,0.128c2.054,0,3.84,1.136,4.76,2.812h3.191l1.65,2.353l1.46-1.514h0.433l1.542,1.542l2.191-1.542h0.324
		l1.92,1.839C23.123,5.889,23.151,6.133,22.88,6.43 M3.38,7.485c1.055,0,1.92-0.865,1.92-1.92S4.436,3.644,3.38,3.644
		c-1.055,0-1.92,0.866-1.92,1.921C1.46,6.619,2.326,7.485,3.38,7.485"/>
</g>
</svg>
