<?xml version="1.0" encoding="utf-8"?>
<!-- Generator: Adobe Illustrator 16.0.0, SVG Export Plug-In . SVG Version: 6.00 Build 0)  -->
<!DOCTYPE svg PUBLIC "-//W3C//DTD SVG 1.1//EN" "http://www.w3.org/Graphics/SVG/1.1/DTD/svg11.dtd">
<svg version="1.1" id="Layer_1" xmlns="http://www.w3.org/2000/svg" xmlns:xlink="http://www.w3.org/1999/xlink" x="0px" y="0px"
	 width="40px" height="71px" viewBox="0 0 40 71" enable-background="new 0 0 40 71" xml:space="preserve">
<g>
	<path fill="#394A58" d="M19.833,69.873c0,0,19.333-38.988,19.333-49.666c0-10.678-8.654-19.334-19.333-19.334S0.5,9.529,0.5,20.207
		C0.5,30.885,19.833,69.873,19.833,69.873"/>
</g>
<g>
	<defs>
		<path id="SVGID_1_" d="M0.5,20.207c0,10.678,19.333,49.666,19.333,49.666s19.334-38.988,19.334-49.666
			c0-10.678-8.656-19.334-19.334-19.334C9.156,0.873,0.5,9.529,0.5,20.207"/>
	</defs>
	<clipPath id="SVGID_2_">
		<use xlink:href="#SVGID_1_"  overflow="visible"/>
	</clipPath>
	<path clip-path="url(#SVGID_2_)" fill="#FFFFFF" d="M19.833,34.382c-1.261,0-2.279-0.833-3.265-1.638
		c-0.601-0.492-1.17-0.957-1.75-1.197c-0.617-0.256-1.373-0.337-2.173-0.423c-1.244-0.132-2.528-0.27-3.378-1.119
		s-0.987-2.134-1.119-3.377c-0.086-0.801-0.166-1.557-0.422-2.174c-0.241-0.58-0.705-1.148-1.198-1.75
		c-0.804-0.986-1.637-2.004-1.637-3.265c0-1.26,0.833-2.279,1.638-3.264c0.492-0.602,0.956-1.17,1.197-1.751
		c0.256-0.616,0.336-1.373,0.422-2.173c0.132-1.243,0.269-2.528,1.119-3.378c0.85-0.849,2.135-0.986,3.378-1.119
		c0.8-0.086,1.556-0.166,2.173-0.422c0.58-0.24,1.149-0.705,1.75-1.197c0.986-0.806,2.004-1.638,3.265-1.638
		c1.26,0,2.279,0.832,3.264,1.638c0.604,0.492,1.171,0.957,1.75,1.197c0.618,0.256,1.374,0.336,2.176,0.422
		c1.241,0.133,2.526,0.27,3.377,1.119c0.849,0.85,0.986,2.135,1.118,3.378c0.086,0.8,0.166,1.557,0.424,2.173
		c0.239,0.581,0.705,1.149,1.195,1.751c0.807,0.985,1.64,2.004,1.64,3.264c0,1.261-0.833,2.279-1.639,3.265
		c-0.491,0.602-0.957,1.171-1.196,1.75c-0.258,0.618-0.338,1.374-0.424,2.174c-0.132,1.243-0.27,2.528-1.118,3.377
		c-0.851,0.849-2.136,0.987-3.378,1.119c-0.801,0.087-1.558,0.167-2.175,0.423c-0.579,0.24-1.147,0.705-1.75,1.197
		C22.112,33.549,21.093,34.382,19.833,34.382 M19.833,5.309c-0.971,0-1.835,0.706-2.75,1.454c-0.621,0.508-1.263,1.033-1.954,1.319
		c-0.725,0.301-1.576,0.391-2.398,0.479c-1.154,0.124-2.243,0.24-2.89,0.887s-0.763,1.736-0.885,2.889
		c-0.088,0.823-0.179,1.673-0.48,2.399c-0.286,0.69-0.811,1.332-1.318,1.953c-0.749,0.915-1.455,1.779-1.455,2.75
		c0,0.972,0.706,1.836,1.454,2.751c0.508,0.621,1.033,1.263,1.319,1.953c0.301,0.725,0.392,1.576,0.48,2.398
		c0.122,1.154,0.238,2.243,0.885,2.89s1.736,0.763,2.889,0.886c0.823,0.088,1.674,0.179,2.4,0.48
		c0.69,0.286,1.332,0.811,1.953,1.318c0.915,0.749,1.779,1.455,2.75,1.455c0.971,0,1.835-0.706,2.75-1.455
		c0.621-0.507,1.263-1.032,1.953-1.318c0.726-0.301,1.577-0.392,2.399-0.48c1.153-0.123,2.242-0.239,2.89-0.886
		c0.646-0.647,0.763-1.736,0.886-2.889c0.088-0.823,0.179-1.673,0.479-2.399c0.285-0.69,0.811-1.332,1.318-1.953
		c0.748-0.915,1.455-1.779,1.455-2.751c0-0.971-0.707-1.835-1.455-2.75c-0.508-0.621-1.033-1.263-1.318-1.953
		c-0.301-0.726-0.392-1.576-0.479-2.399c-0.123-1.153-0.239-2.242-0.886-2.889c-0.647-0.647-1.736-0.763-2.89-0.887
		c-0.822-0.088-1.674-0.178-2.399-0.479c-0.69-0.286-1.332-0.811-1.953-1.319C21.668,6.015,20.804,5.309,19.833,5.309"/>
	<path clip-path="url(#SVGID_2_)" fill="#FFFFFF" d="M19.833,32.13c-1.088,0-1.957-0.712-2.798-1.398
		c-0.505-0.413-0.983-0.803-1.464-1.003c-0.514-0.213-1.148-0.281-1.82-0.352c-1.06-0.113-2.158-0.231-2.892-0.964
		c-0.733-0.734-0.851-1.831-0.964-2.892c-0.071-0.672-0.139-1.306-0.352-1.82c-0.199-0.482-0.59-0.959-1.002-1.463
		c-0.688-0.842-1.399-1.711-1.399-2.799c0-1.087,0.711-1.957,1.399-2.798c0.413-0.505,0.803-0.982,1.002-1.464
		c0.213-0.513,0.281-1.148,0.352-1.82c0.113-1.061,0.231-2.158,0.964-2.891c0.734-0.734,1.832-0.852,2.892-0.965
		c0.672-0.072,1.306-0.139,1.82-0.352c0.481-0.2,0.959-0.589,1.464-1.002c0.841-0.688,1.71-1.399,2.798-1.399
		s1.958,0.711,2.799,1.399c0.504,0.413,0.982,0.802,1.463,1.002c0.514,0.213,1.148,0.28,1.82,0.352
		c1.061,0.113,2.158,0.231,2.892,0.965c0.733,0.733,0.851,1.83,0.965,2.891c0.07,0.672,0.139,1.307,0.352,1.82
		c0.2,0.481,0.59,0.959,1.002,1.463c0.688,0.841,1.399,1.712,1.399,2.799c0,1.088-0.711,1.957-1.399,2.799
		c-0.412,0.505-0.802,0.981-1.002,1.463c-0.213,0.514-0.281,1.148-0.352,1.82c-0.114,1.061-0.231,2.158-0.965,2.892
		c-0.733,0.733-1.831,0.851-2.892,0.964c-0.672,0.071-1.307,0.139-1.82,0.352c-0.481,0.2-0.959,0.59-1.464,1.003
		C21.79,31.418,20.921,32.13,19.833,32.13 M19.833,7.561c-0.798,0-1.52,0.59-2.284,1.215c-0.529,0.432-1.075,0.878-1.667,1.124
		c-0.621,0.258-1.345,0.335-2.045,0.41c-0.963,0.102-1.873,0.199-2.404,0.731c-0.531,0.531-0.627,1.441-0.731,2.404
		c-0.074,0.7-0.151,1.422-0.409,2.045c-0.245,0.591-0.692,1.137-1.124,1.666c-0.624,0.764-1.215,1.486-1.215,2.284
		s0.591,1.52,1.215,2.284c0.432,0.528,0.879,1.075,1.124,1.667c0.258,0.621,0.335,1.345,0.409,2.044
		c0.104,0.964,0.2,1.873,0.731,2.404c0.531,0.532,1.442,0.629,2.405,0.731c0.699,0.075,1.423,0.152,2.044,0.41
		c0.592,0.245,1.138,0.692,1.667,1.124c0.764,0.625,1.486,1.215,2.284,1.215s1.52-0.59,2.284-1.216
		c0.529-0.431,1.075-0.878,1.667-1.123c0.622-0.258,1.345-0.335,2.044-0.41c0.963-0.102,1.873-0.199,2.405-0.73
		c0.529-0.531,0.627-1.441,0.729-2.405c0.075-0.699,0.152-1.423,0.41-2.044c0.246-0.591,0.692-1.139,1.124-1.667
		c0.625-0.764,1.215-1.486,1.215-2.284s-0.59-1.52-1.215-2.285c-0.432-0.528-0.878-1.074-1.124-1.665
		c-0.257-0.623-0.335-1.345-0.409-2.045c-0.104-0.963-0.201-1.873-0.73-2.404c-0.532-0.532-1.442-0.629-2.405-0.731
		c-0.699-0.075-1.422-0.152-2.044-0.41c-0.592-0.246-1.138-0.692-1.666-1.124C21.353,8.15,20.631,7.561,19.833,7.561"/>
	<path clip-path="url(#SVGID_2_)" fill="#FFFFFF" d="M19.833,29.878c-0.915,0-1.668-0.615-2.332-1.159
		c-0.409-0.333-0.794-0.649-1.177-0.808c-0.409-0.169-0.923-0.224-1.466-0.282c-0.879-0.094-1.789-0.191-2.406-0.809
		c-0.618-0.617-0.716-1.526-0.809-2.406c-0.058-0.543-0.113-1.056-0.283-1.466c-0.158-0.383-0.473-0.768-0.807-1.176
		c-0.544-0.665-1.159-1.418-1.159-2.332c0-0.915,0.615-1.668,1.159-2.333c0.334-0.409,0.649-0.794,0.807-1.177
		c0.17-0.409,0.225-0.922,0.283-1.465c0.093-0.88,0.191-1.789,0.809-2.407c0.617-0.618,1.527-0.715,2.405-0.809
		c0.544-0.058,1.057-0.112,1.467-0.282c0.383-0.159,0.769-0.474,1.177-0.808C18.165,9.616,18.918,9,19.833,9
		s1.668,0.616,2.333,1.159c0.407,0.334,0.793,0.649,1.176,0.808c0.409,0.17,0.923,0.224,1.466,0.282
		c0.879,0.094,1.789,0.191,2.406,0.809c0.619,0.618,0.716,1.527,0.81,2.406c0.059,0.544,0.112,1.057,0.282,1.466
		c0.159,0.383,0.475,0.768,0.809,1.177c0.543,0.664,1.159,1.418,1.159,2.333c0,0.914-0.616,1.667-1.159,2.332
		c-0.334,0.408-0.649,0.793-0.809,1.176c-0.17,0.41-0.224,0.923-0.282,1.466c-0.094,0.88-0.19,1.79-0.81,2.407
		c-0.617,0.618-1.527,0.715-2.406,0.808c-0.543,0.059-1.057,0.113-1.466,0.282c-0.383,0.16-0.769,0.475-1.176,0.809
		C21.501,29.263,20.748,29.878,19.833,29.878 M19.833,9.812c-0.625,0-1.205,0.474-1.819,0.976c-0.435,0.356-0.886,0.724-1.38,0.929
		c-0.517,0.215-1.113,0.278-1.69,0.339c-0.773,0.082-1.504,0.161-1.918,0.576c-0.415,0.415-0.493,1.145-0.575,1.919
		c-0.062,0.576-0.126,1.173-0.34,1.69c-0.205,0.494-0.573,0.944-0.929,1.38c-0.502,0.614-0.976,1.193-0.976,1.819
		c0,0.625,0.474,1.204,0.976,1.818c0.356,0.436,0.724,0.886,0.929,1.38c0.214,0.517,0.278,1.113,0.34,1.689
		c0.082,0.774,0.16,1.504,0.575,1.919c0.414,0.415,1.145,0.494,1.918,0.576c0.577,0.061,1.173,0.125,1.691,0.34
		c0.493,0.204,0.944,0.573,1.379,0.929c0.614,0.502,1.194,0.976,1.819,0.976c0.626,0,1.205-0.474,1.819-0.976
		c0.435-0.356,0.886-0.725,1.38-0.929c0.517-0.215,1.114-0.278,1.689-0.34c0.773-0.082,1.504-0.161,1.918-0.575
		c0.415-0.415,0.493-1.146,0.575-1.919c0.062-0.576,0.126-1.173,0.341-1.69c0.204-0.494,0.573-0.944,0.93-1.38
		c0.501-0.614,0.975-1.193,0.975-1.818c0-0.626-0.474-1.205-0.976-1.82c-0.355-0.435-0.725-0.885-0.929-1.379
		c-0.215-0.517-0.278-1.114-0.341-1.691c-0.082-0.773-0.16-1.503-0.575-1.918c-0.414-0.415-1.145-0.494-1.918-0.576
		c-0.575-0.061-1.173-0.124-1.69-0.339c-0.493-0.205-0.944-0.573-1.379-0.929C21.038,10.286,20.459,9.812,19.833,9.812"/>
	<path clip-path="url(#SVGID_2_)" fill="#FFFFFF" d="M19.833,27.627c-0.742,0-1.34-0.489-1.867-0.92
		c-0.311-0.253-0.605-0.494-0.89-0.612c-0.306-0.127-0.697-0.168-1.111-0.213c-0.698-0.074-1.419-0.152-1.921-0.653
		c-0.502-0.502-0.579-1.224-0.654-1.922c-0.044-0.414-0.086-0.806-0.212-1.111c-0.118-0.284-0.358-0.578-0.613-0.89
		c-0.431-0.527-0.919-1.124-0.919-1.866c0-0.742,0.488-1.34,0.919-1.867c0.255-0.311,0.495-0.605,0.613-0.89
		c0.126-0.305,0.168-0.697,0.212-1.112c0.075-0.697,0.152-1.419,0.654-1.92c0.502-0.502,1.223-0.58,1.921-0.654
		c0.415-0.044,0.805-0.087,1.111-0.213c0.285-0.118,0.579-0.358,0.89-0.612c0.527-0.431,1.125-0.92,1.867-0.92
		s1.34,0.489,1.867,0.92c0.311,0.254,0.604,0.494,0.889,0.612c0.306,0.126,0.697,0.169,1.112,0.213
		c0.698,0.075,1.419,0.152,1.921,0.654c0.502,0.501,0.579,1.223,0.654,1.92c0.044,0.415,0.086,0.807,0.213,1.112
		c0.118,0.285,0.357,0.579,0.611,0.89c0.432,0.527,0.921,1.125,0.921,1.867c0,0.742-0.489,1.339-0.921,1.866
		c-0.254,0.312-0.493,0.606-0.611,0.89c-0.127,0.305-0.169,0.697-0.213,1.112c-0.075,0.697-0.152,1.419-0.654,1.921
		c-0.502,0.501-1.223,0.579-1.921,0.653c-0.415,0.045-0.807,0.087-1.111,0.213c-0.285,0.118-0.579,0.359-0.89,0.612
		C21.173,27.138,20.575,27.627,19.833,27.627 M19.833,12.064c-0.453,0-0.89,0.358-1.353,0.736c-0.342,0.281-0.697,0.571-1.092,0.734
		c-0.414,0.172-0.883,0.222-1.337,0.27c-0.583,0.062-1.134,0.121-1.433,0.421c-0.299,0.298-0.358,0.849-0.421,1.433
		c-0.048,0.454-0.098,0.922-0.269,1.336c-0.164,0.395-0.454,0.75-0.735,1.092c-0.378,0.464-0.736,0.901-0.736,1.354
		c0,0.452,0.358,0.889,0.736,1.353c0.281,0.342,0.571,0.697,0.735,1.092c0.171,0.414,0.221,0.883,0.269,1.336
		c0.063,0.583,0.122,1.134,0.421,1.434c0.299,0.299,0.85,0.357,1.433,0.42c0.454,0.048,0.922,0.098,1.337,0.27
		c0.394,0.164,0.75,0.454,1.092,0.734c0.463,0.379,0.9,0.736,1.353,0.736c0.452,0,0.89-0.357,1.353-0.736
		c0.344-0.28,0.697-0.57,1.094-0.734c0.414-0.172,0.882-0.222,1.335-0.27c0.584-0.062,1.135-0.121,1.434-0.42
		c0.299-0.3,0.358-0.85,0.421-1.434c0.048-0.453,0.099-0.922,0.271-1.336c0.163-0.395,0.453-0.75,0.733-1.092
		c0.378-0.464,0.736-0.901,0.736-1.353c0-0.453-0.358-0.89-0.736-1.354c-0.28-0.342-0.57-0.697-0.733-1.092
		c-0.172-0.414-0.223-0.883-0.271-1.336c-0.062-0.584-0.122-1.135-0.421-1.433c-0.299-0.3-0.85-0.358-1.434-0.421
		c-0.453-0.048-0.922-0.098-1.335-0.27c-0.396-0.163-0.75-0.453-1.094-0.734C20.723,12.422,20.285,12.064,19.833,12.064"/>
	<path clip-path="url(#SVGID_2_)" fill="#FFFFFF" d="M19.833,25.375c-0.569,0-1.011-0.361-1.401-0.68
		c-0.214-0.174-0.417-0.34-0.603-0.417c-0.201-0.084-0.472-0.113-0.757-0.143c-0.492-0.053-1.05-0.112-1.436-0.498
		c-0.386-0.386-0.446-0.944-0.498-1.436c-0.031-0.286-0.06-0.556-0.143-0.757c-0.077-0.187-0.243-0.389-0.417-0.603
		c-0.319-0.391-0.681-0.832-0.681-1.401c0-0.57,0.362-1.011,0.68-1.401c0.175-0.215,0.341-0.416,0.417-0.603
		c0.084-0.202,0.113-0.471,0.144-0.758c0.052-0.492,0.112-1.05,0.498-1.435c0.386-0.386,0.944-0.446,1.436-0.498
		c0.285-0.031,0.556-0.06,0.757-0.143c0.186-0.078,0.389-0.243,0.603-0.418c0.39-0.319,0.832-0.68,1.401-0.68
		c0.569,0,1.011,0.361,1.401,0.68c0.214,0.175,0.417,0.341,0.603,0.418c0.201,0.083,0.471,0.112,0.757,0.143
		c0.492,0.052,1.05,0.112,1.437,0.498c0.386,0.385,0.445,0.943,0.498,1.436c0.03,0.286,0.06,0.555,0.144,0.757
		c0.076,0.187,0.242,0.388,0.417,0.603c0.318,0.39,0.68,0.831,0.68,1.401c0,0.569-0.361,1.01-0.68,1.401
		c-0.175,0.214-0.341,0.416-0.417,0.603c-0.084,0.201-0.113,0.471-0.144,0.757c-0.053,0.492-0.112,1.05-0.498,1.436
		c-0.387,0.386-0.944,0.445-1.437,0.498c-0.285,0.03-0.556,0.059-0.757,0.143c-0.186,0.077-0.389,0.243-0.603,0.417
		C20.844,25.014,20.402,25.375,19.833,25.375 M19.833,14.316c-0.279,0-0.574,0.241-0.887,0.497c-0.25,0.204-0.509,0.416-0.806,0.539
		c-0.31,0.128-0.652,0.165-0.982,0.2c-0.393,0.042-0.764,0.081-0.948,0.265c-0.183,0.183-0.223,0.554-0.265,0.947
		c-0.035,0.331-0.071,0.673-0.2,0.983c-0.123,0.296-0.334,0.555-0.539,0.806c-0.256,0.312-0.497,0.607-0.497,0.887
		c0,0.28,0.241,0.574,0.497,0.887c0.205,0.25,0.416,0.509,0.539,0.805c0.129,0.31,0.165,0.652,0.2,0.982
		c0.042,0.394,0.082,0.765,0.265,0.949c0.184,0.183,0.555,0.223,0.948,0.265c0.33,0.035,0.672,0.071,0.982,0.2
		c0.297,0.123,0.556,0.335,0.806,0.538c0.313,0.257,0.608,0.498,0.887,0.498c0.279,0,0.574-0.241,0.887-0.498
		c0.25-0.203,0.509-0.415,0.807-0.538c0.31-0.129,0.651-0.165,0.981-0.2c0.394-0.042,0.765-0.082,0.948-0.265
		c0.183-0.184,0.223-0.555,0.265-0.948c0.035-0.331,0.071-0.673,0.2-0.983c0.123-0.296,0.334-0.555,0.539-0.806
		c0.256-0.312,0.497-0.607,0.497-0.886c0-0.28-0.241-0.575-0.497-0.887c-0.205-0.251-0.416-0.51-0.539-0.806
		c-0.129-0.31-0.165-0.652-0.2-0.983c-0.042-0.393-0.082-0.764-0.265-0.947c-0.184-0.183-0.555-0.223-0.948-0.265
		c-0.33-0.035-0.672-0.072-0.981-0.2c-0.298-0.123-0.556-0.335-0.807-0.539C20.407,14.557,20.112,14.316,19.833,14.316"/>
</g>
<g>
	<path fill="none" stroke="#FFFFFF" d="M19.833,69.873c0,0,19.333-38.988,19.333-49.666c0-10.678-8.654-19.334-19.333-19.334
		S0.5,9.529,0.5,20.207C0.5,30.885,19.833,69.873,19.833,69.873z"/>
</g>
</svg>
